<svg width="52" height="52" viewBox="0 0 52 52" fill="none" xmlns="http://www.w3.org/2000/svg">
<path fill-rule="evenodd" clip-rule="evenodd" d="M4.33333 5.41669C3.73502 5.41669 3.25 5.90171 3.25 6.50002V32.5C3.25 33.0983 3.73502 33.5834 4.33333 33.5834H9.30127L13.3173 37.5994C13.7404 38.0225 14.4263 38.0225 14.8494 37.5994L18.8654 33.5834H22.75V41.1666C22.75 41.765 23.235 42.25 23.8333 42.25H35.3013L38.234 45.1827C38.657 45.6057 39.343 45.6057 39.766 45.1827L42.6987 42.25H47.6667C48.265 42.25 48.75 41.765 48.75 41.1666V23.8333C48.75 23.235 48.265 22.75 47.6667 22.75H40.0833V6.50002C40.0833 5.90171 39.5983 5.41669 39 5.41669H4.33333ZM40.0833 24.9166V32.5V32.5C40.0833 32.7992 39.9621 33.07 39.766 33.2661C39.57 33.4621 39.2991 33.5834 39 33.5834H24.9167V40.0833H35.75C36.0373 40.0833 36.3129 40.1975 36.516 40.4006L39 42.8846L41.484 40.4006C41.6871 40.1975 41.9627 40.0833 42.25 40.0833H46.5833V24.9166H40.0833ZM37.9167 23.8333V7.58335H5.41667V31.4167H9.75C10.0373 31.4167 10.3129 31.5308 10.516 31.734L14.0833 35.3013L17.6506 31.734C17.8538 31.5308 18.1293 31.4167 18.4167 31.4167H23.8239L23.8333 31.4166H37.9167V23.8333ZM11.9167 22.75H20.5833V24.9166H11.9167V22.75ZM27.0833 14.0832H11.9167V16.2499H27.0833V14.0832Z" fill="white"/>
</svg>
