<svg width="52" height="52" viewBox="0 0 52 52" fill="none" xmlns="http://www.w3.org/2000/svg">
<path fill-rule="evenodd" clip-rule="evenodd" d="M3.5673 26.766C3.14423 26.343 3.14423 25.657 3.5673 25.234L26 2.80127L27.5321 4.33333L5.8654 26L26 46.1346L46.1346 26L34.2179 14.0833L35.75 12.5513L48.4327 25.234C48.8558 25.657 48.8558 26.343 48.4327 26.766L26.766 48.4327C26.343 48.8558 25.657 48.8558 25.234 48.4327L3.5673 26.766ZM27.0967 25.5379C27.1403 24.2637 27.245 22.6266 27.4803 20.8619C27.7452 18.8755 28.1722 16.7526 28.8509 14.8136C29.5325 12.866 30.445 11.1706 31.6413 9.97436C33.9194 7.69626 37.5906 7.70316 41.0587 8.5035C42.7445 8.89253 44.2773 9.44618 45.3924 9.90537C45.9484 10.1343 46.3967 10.3382 46.7038 10.4836C46.8572 10.5563 46.9752 10.6143 47.0533 10.6534C47.0788 10.6661 47.1 10.6768 47.1169 10.6854C47.1259 10.69 47.1337 10.6939 47.1402 10.6973L47.1603 10.7076L47.1642 10.7096L48.1239 11.2123L49.1292 9.29302L48.1696 8.79034L48.1653 8.78814L48.157 8.78379L48.128 8.76885C48.1168 8.76315 48.1035 8.75637 48.0881 8.74856C48.0693 8.73902 48.0473 8.72795 48.0223 8.71544C47.9312 8.6699 47.7995 8.60516 47.6313 8.5255C47.2951 8.36626 46.8124 8.14692 46.2174 7.90191C45.0305 7.41318 43.381 6.81579 41.5459 6.39232C37.9724 5.56766 33.2478 5.30373 30.1092 8.4423C28.5971 9.95441 27.5461 11.9829 26.8058 14.0978C26.0626 16.2213 25.6095 18.4995 25.3327 20.5756C25.0797 22.4723 24.9713 24.2216 24.928 25.5627L21.6666 22.3013L20.1346 23.8333L24.9347 28.6335L24.9611 29.2924L26.0424 29.2492C26.0432 29.2491 26.0439 29.2491 26.0447 29.2491L27.126 29.2058L27.1016 28.5971L31.8654 23.8333L30.3333 22.3013L27.0967 25.5379Z" fill="white"/>
</svg>
