<svg width="52" height="52" viewBox="0 0 52 52" fill="none" xmlns="http://www.w3.org/2000/svg">
<path fill-rule="evenodd" clip-rule="evenodd" d="M25.8777 9.89981C20.3098 5.21428 13.5678 3.31711 8.40459 6.29806C4.61411 8.48645 2.67182 12.7582 2.4132 17.6541C2.15392 22.5622 3.56402 28.2472 6.64487 33.5834L7.58307 33.0418L6.64487 33.5834C10.6853 40.5817 16.7097 45.4284 22.5072 46.7615L23.563 47.0043L23.5955 46.8628C26.7118 47.5523 30.1563 46.8799 33.4315 45.2128C37.8117 42.9833 42.0301 38.9196 45.111 33.5834L44.2061 33.061L45.111 33.5834C48.1918 28.2472 49.6019 22.5621 49.3426 17.654C49.0839 12.7582 47.1416 8.48642 43.3512 6.29803C39.5607 4.1096 34.8901 4.56342 30.5208 6.78737C28.9366 7.59376 27.3735 8.6401 25.8777 9.89981ZM24.2602 11.3718C19.0764 7.10161 13.4391 5.89327 9.48792 8.17445L9.48791 8.17445C6.54245 9.87499 4.8116 13.3245 4.57685 17.7684C4.34274 22.2 5.61903 27.4733 8.52126 32.5001C10.7633 36.3835 13.6086 39.4875 16.5984 41.6265C15.406 39.5519 14.7523 37.0437 14.6098 34.346C14.3506 29.4379 15.7607 23.7529 18.8415 18.4167C20.399 15.719 22.2473 13.3465 24.2602 11.3718ZM20.7179 19.5001C23.6201 14.4733 27.5487 10.7314 31.5037 8.71829C35.4696 6.69964 39.3224 6.47385 42.2678 8.17442L42.8095 7.23623L42.2678 8.17443C45.2133 9.87496 46.9442 13.3244 47.1789 17.7683C47.413 22.2 46.1368 27.4732 43.2346 32.5001C40.3323 37.5269 36.4037 41.2688 32.4487 43.2818C28.4827 45.3005 24.63 45.5263 21.6845 43.8258C18.739 42.1252 17.0082 38.6757 16.7735 34.2317C16.5394 29.8001 17.8157 24.5269 20.7179 19.5001Z" fill="white"/>
</svg>
